<?xml version="1.0" standalone="no"?><!DOCTYPE svg PUBLIC "-//W3C//DTD SVG 1.1//EN" "http://www.w3.org/Graphics/SVG/1.1/DTD/svg11.dtd"><svg t="1505289331216" class="icon" style="" viewBox="0 0 1024 1024" version="1.1" xmlns="http://www.w3.org/2000/svg" p-id="2495" xmlns:xlink="http://www.w3.org/1999/xlink" width="200" height="200"><defs><style type="text/css"></style></defs><path d="M278.34414 324.309227z m-40.857856 0c0 22.982544 20.428928 43.411471 43.411472 43.411471 22.982544 0 43.411471-20.428928 43.411471-43.411471 0-22.982544-20.428928-43.411471-43.411471-43.411471-25.53616 2.553616-43.411471 20.428928-43.411472 43.411471M605.206983 549.027431z m-33.197008 0c0 17.875312 15.321696 33.197007 33.197008 33.197008 17.875312 0 33.197007-15.321696 33.197007-33.197008 0-17.875312-15.321696-33.197007-33.197007-33.197007-17.875312-2.553616-33.197007 12.76808-33.197008 33.197007M497.955112 324.309227z m-43.411471 0c0 22.982544 20.428928 43.411471 43.411471 43.411471 22.982544 0 43.411471-20.428928 43.411472-43.411471 0-22.982544-20.428928-43.411471-43.411472-43.411471-22.982544 2.553616-43.411471 20.428928-43.411471 43.411471" fill="#2EA223" p-id="2496"></path><path d="M855.461347 2.553616h-689.47631C74.054863 2.553616 0 76.608479 0 168.538653v689.47631c0 91.930175 74.054863 165.985037 165.985037 165.985037h689.47631c91.930175 0 165.985037-74.054863 165.985037-165.985037v-689.47631C1021.446384 76.608479 947.391521 2.553616 855.461347 2.553616zM383.042394 686.922693c-38.304239 0-68.947631-7.660848-107.25187-15.321695l-107.251871 53.625935 30.643392-91.930175c-76.608479-53.625935-125.127182-125.127182-125.127182-209.396509C74.054863 275.790524 214.503741 160.877805 383.042394 160.877805c153.216958 0 286.004988 91.930175 311.541147 217.057357-10.214464 0-20.428928-2.553616-30.643391-2.553616-148.109726 0-263.022444 109.805486-263.022444 245.147132 0 22.982544 2.553616 43.411471 10.214464 63.840399-7.660848 2.553616-17.875312 2.553616-28.089776 2.553616z m457.097257 107.251871l22.982544 76.608478-84.269327-45.965087c-30.643392 7.660848-61.286783 15.321696-91.930175 15.321696-148.109726 0-263.022444-99.591022-263.022444-224.718205 0-122.573566 114.912718-224.718204 263.022444-224.718204 137.895262 0 263.022444 102.144638 263.022444 224.718204 0 71.501247-45.965087 132.78803-109.805486 178.753118z" fill="#2EA223" p-id="2497"></path><path d="M773.745636 549.027431z m-33.197008 0c0 17.875312 15.321696 33.197007 33.197008 33.197008 17.875312 0 33.197007-15.321696 33.197007-33.197008 0-17.875312-15.321696-33.197007-33.197007-33.197007-17.875312-2.553616-33.197007 12.76808-33.197008 33.197007" fill="#2EA223" p-id="2498"></path></svg>