<?xml version="1.0" standalone="no"?><!DOCTYPE svg PUBLIC "-//W3C//DTD SVG 1.1//EN" "http://www.w3.org/Graphics/SVG/1.1/DTD/svg11.dtd"><svg t="1505289356302" class="icon" style="" viewBox="0 0 1024 1024" version="1.1" xmlns="http://www.w3.org/2000/svg" p-id="3167" xmlns:xlink="http://www.w3.org/1999/xlink" width="200" height="200"><defs><style type="text/css"></style></defs><path d="M1019.222395 157.660964V691.160187l-342.395023-114.66252c10.606283-19.11042 22.836952-42.456983 36.628305-70.071539 25.48056-53.095117 42.456983-98.195708 50.961119-135.365475h-195.881804V296.211509h242.09717v-30.258165H568.534992V149.698289h-108.292379v114.66252h-242.065319v33.443235h240.472784v71.664074H251.620529v36.628305h388.578538L635.421462 445.909798c-9.55521 33.984697-26.563484 68.479005-50.992971 103.514774-127.402799-32.901773-206.488087-50.419658-237.287713-52.553654-53.095117-4.236143-93.418103-3.18507-121.03266 3.18507-25.48056 4.236143-50.419658 14.332815-74.849144 30.258164l-22.29549 19.11042c-14.842426 14.874277-24.939098 29.748554-30.258165 44.59098l-7.930824 27.073095a194.671477 194.671477 0 0 0 0 70.07154l12.740279 42.998444c15.92535 31.8507 38.762302 55.738725 68.479005 71.664075l35.03577 17.517885c29.716703 10.638134 58.923795 15.383888 87.589425 14.332815l44.590979-4.745754c33.984697-4.267994 63.7014-11.179596 89.18196-20.702955a291.179098 291.179098 0 0 0 38.22084-17.517885c29.748554-14.874277 53.604728-31.309238 71.664074-49.368585 40.354837-33.984697 68.447154-62.650327 84.372504-85.99689L1019.222395 828.118196v39.813375c0 43.508056-15.383888 80.168212-46.183515 109.884914-29.748554 30.799627-66.345008 46.183515-109.884914 46.183515H157.660964c-43.539907 0-80.709673-15.383888-111.477449-46.183515C15.383888 948.099782 0 911.439627 0 867.931571V157.660964c0-43.539907 15.383888-80.709673 46.183515-111.477449C76.983142 15.383888 114.121058 0 157.660964 0H863.153966c43.539907 0 80.168212 15.383888 109.884914 46.183515 30.799627 30.799627 46.183515 67.937543 46.183515 111.477449zM275.508554 538.276827c12.74028 0 23.346563 0.541462 31.850699 1.592535 29.748554 2.102146 63.7014 10.064821 101.92224 23.888025 25.48056 8.504137 66.88647 27.073095 124.217729 55.738725-11.657356 20.161493-33.984697 44.049518-66.886469 71.664075-18.027496 16.976423-40.864448 32.901773-68.479005 47.776049a204.608896 204.608896 0 0 1-36.628305 15.92535c-28.66563 10.606283-57.33126 15.92535-85.996889 15.92535l-31.8507-4.777605a158.680187 158.680187 0 0 1-60.51633-14.332815l-19.11042-14.300964c-16.976423-13.823204-28.66563-29.207092-35.03577-46.183515l-4.777605-23.919875c-2.102146-11.689207 0-25.990171 6.37014-43.030296l11.147745-22.263639c9.55521-17.008274 23.888025-30.799627 42.998445-41.43776l23.888025-11.147745c19.11042-6.338289 41.40591-10.03297 66.88647-11.115895z" fill="#3C98E3" p-id="3168"></path></svg>